# xmcd CD database file
#
# Track frame offsets:
#	150
#	9447
#	22252
#	34615
#	52960
#	70007
#	82765
#	95382
#	119282
#	136695
#	151597
#	169095
#	180672
#	197760
#	210095
#	223995
#	237325
#	249670
#	266535
#	287242
#
# Disc length: 3964 seconds
#
# Revision: 0
# Processed by: cddbd v1.5.1PL0 Copyright (c) Steve Scherf et al.
# Submitted via: CDex 1.51
#
DISCID=080f7a14
DTITLE=The Bluesville Years - Volume 11 - Blues Is A Heart's Sorrow
DYEAR=1999
DGENRE=Blues
TTITLE0=I Hate To Be Alone - Roosevelt Sykes
TTITLE1=Selfish Woman - Roosevelt Sykes
TTITLE2=Everytime I Get To Drinking - Sunnyland Slim
TTITLE3=Pity And A Shame - Mercy Dee Walton
TTITLE4=I'll Go On Living - Jimmy Witherspoon
TTITLE5=Sail On, Little Girl - Jimmy Witherspoon
TTITLE6=How Long Blues - Jimmy Witherspoon
TTITLE7=Last Night Blues - Lightnin Hopkins w Sonny Terry
TTITLE8=The Train Is Coming - Henry Townsend
TTITLE9=Nervous - Willie Dixon w Memphis Slim
TTITLE10=You Have No Love In Your Heart - Lonnie Johnson
TTITLE11=Evil Woman - Lonnie Johnson
TTITLE12=Four Walls And Me - Lonnie Johnson
TTITLE13=I'm Gettin' Long Alright - Mildred Anderson
TTITLE14=Cry, Cry Baby - Little Brother Montgomery
TTITLE15=Fool Blues - Curtis Jones
TTITLE16=Good Women Blues - Curtis Jones
TTITLE17=My Old Lonesome Blues - Pete Franklin
TTITLE18=Dog House Blues - St Louis Jimmy
TTITLE19=Some Sweet Day - St Louis Jimmy
EXTD=YEAR: 1999
EXTT0=
EXTT1=
EXTT2=
EXTT3=
EXTT4=
EXTT5=
EXTT6=
EXTT7=
EXTT8=
EXTT9=
EXTT10=
EXTT11=
EXTT12=
EXTT13=
EXTT14=
EXTT15=
EXTT16=
EXTT17=
EXTT18=
EXTT19=
PLAYORDER=
